<?xml version="1.0" standalone="no"?>
<!DOCTYPE svg PUBLIC "-//W3C//DTD SVG 20010904//EN"
 "http://www.w3.org/TR/2001/REC-SVG-20010904/DTD/svg10.dtd">
<svg version="1.0" xmlns="http://www.w3.org/2000/svg"
 width="860.000000pt" height="860.000000pt" viewBox="0 0 860.000000 860.000000"
 preserveAspectRatio="xMidYMid meet">
<metadata>
Created by potrace 1.14, written by Peter Selinger 2001-2017
</metadata>
<g transform="translate(0.000000,860.000000) scale(0.100000,-0.100000)"
fill="#000000" stroke="none">
<path d="M3545 8425 c-128 -28 -212 -84 -281 -186 -80 -119 -94 -278 -37 -409
3 -8 5 -18 5 -22 -1 -5 2 -8 8 -8 5 0 10 -7 10 -16 0 -21 134 -154 155 -154 8
0 15 -4 15 -10 0 -5 8 -10 18 -10 10 0 22 -4 28 -9 36 -33 225 -37 304 -5 78
31 150 86 206 156 18 23 61 122 69 158 11 50 8 151 -5 201 -43 158 -191 295
-340 314 -92 11 -103 11 -155 0z"/>
<path d="M5768 8387 c-21 -5 -38 -13 -38 -18 0 -5 -6 -9 -12 -9 -31 0 -81
-115 -73 -163 15 -77 75 -140 143 -151 19 -2 36 -7 40 -10 3 -3 11 -1 19 5 7
6 13 9 13 5 0 -15 81 37 103 66 41 54 48 97 27 159 -33 96 -120 142 -222 116z"/>
<path d="M4580 8302 c-129 -43 -226 -137 -268 -259 -20 -59 -30 -164 -19 -208
20 -81 32 -110 63 -157 57 -85 138 -144 239 -176 33 -10 174 -9 220 2 95 23
200 108 253 208 76 139 60 323 -38 447 -48 61 -89 93 -164 127 -79 36 -205 43
-286 16z"/>
<path d="M2445 8229 c-59 -7 -175 -48 -175 -60 0 -5 -6 -9 -13 -9 -18 0 -119
-101 -137 -137 -8 -15 -20 -35 -27 -44 -7 -8 -14 -24 -16 -35 -1 -10 -5 -23
-9 -29 -9 -15 -17 -74 -19 -136 -4 -165 102 -334 256 -409 141 -68 311 -59
437 23 61 40 118 91 118 106 0 6 4 11 8 11 13 0 69 121 80 175 15 72 7 181
-19 250 -31 85 -106 183 -167 219 -118 68 -207 90 -317 75z"/>
<path d="M5562 7804 c-84 -22 -149 -70 -232 -171 -6 -7 -10 -19 -10 -27 0 -8
-4 -18 -10 -21 -25 -16 -50 -227 -28 -241 4 -3 8 -14 8 -25 0 -35 57 -133 102
-175 44 -42 108 -89 108 -80 0 3 19 -4 43 -14 43 -19 147 -28 198 -16 88 20
174 69 223 127 32 37 75 110 81 136 2 10 8 34 13 53 20 81 -7 217 -58 292 -38
56 -102 109 -170 140 -77 36 -182 45 -268 22z"/>
<path d="M6765 7763 c-107 -55 -145 -165 -95 -267 55 -110 189 -141 291 -68
52 38 64 58 76 138 7 43 -13 108 -44 145 -52 61 -162 86 -228 52z"/>
<path d="M1435 7615 c-369 -68 -519 -518 -262 -788 96 -102 207 -150 342 -150
89 0 132 10 211 48 60 29 174 120 174 138 0 3 11 23 25 43 38 56 66 158 66
239 0 105 -21 180 -74 261 -26 41 -117 140 -117 128 0 -2 -16 8 -36 21 -46 32
-154 65 -219 69 -27 1 -77 -2 -110 -9z"/>
<path d="M6344 7058 c-3 -4 -9 -6 -14 -3 -11 7 -140 -55 -140 -67 0 -4 -7 -8
-15 -8 -8 0 -15 -3 -15 -7 0 -5 -14 -23 -31 -41 -27 -29 -67 -103 -76 -142 -2
-8 -6 -45 -8 -82 -20 -321 356 -511 609 -308 112 90 162 254 122 394 -36 124
-135 225 -251 258 -49 14 -174 18 -181 6z"/>
<path d="M2558 6991 c-39 -19 -79 -80 -83 -127 -12 -127 147 -219 247 -142
155 118 12 354 -164 269z"/>
<path d="M7625 6831 c-51 -24 -80 -52 -107 -104 -50 -97 -7 -230 92 -283 39
-21 147 -28 168 -12 6 6 12 8 12 4 0 -20 113 81 116 103 0 3 4 13 8 22 14 32
13 105 -3 148 -41 112 -180 172 -286 122z"/>
<path d="M707 6614 c-2 -3 -16 -6 -29 -8 -14 -1 -54 -16 -89 -33 -268 -131
-341 -483 -145 -709 57 -67 170 -133 253 -149 47 -9 198 -5 198 5 0 1 11 3 24
6 13 2 50 18 81 35 143 76 235 225 244 394 1 17 0 34 -2 39 -3 5 -6 25 -7 45
-3 56 -43 148 -89 204 -92 113 -204 169 -347 174 -48 1 -89 0 -92 -3z"/>
<path d="M1937 6205 c-56 -14 -93 -45 -117 -99 -34 -73 -8 -172 55 -213 100
-66 217 -34 266 72 23 49 23 69 3 131 -27 85 -116 132 -207 109z"/>
<path d="M6773 6044 c-72 -18 -121 -48 -175 -106 -65 -69 -91 -140 -91 -243 1
-103 33 -180 103 -247 115 -110 263 -134 408 -66 72 34 164 138 178 201 1 4 2
8 4 10 3 4 10 42 13 85 4 38 0 69 -16 138 -12 50 -70 125 -144 184 -54 44
-194 66 -280 44z"/>
<path d="M8157 5759 c-9 -6 -17 -7 -17 -4 0 10 -54 -22 -87 -52 -68 -62 -91
-189 -49 -274 36 -75 106 -121 192 -125 70 -3 117 10 154 44 14 12 27 22 31
22 7 0 52 79 57 100 9 36 8 106 -1 118 -5 6 -7 12 -3 12 11 0 -25 63 -53 93
-14 16 -44 38 -65 49 -44 22 -132 32 -159 17z"/>
<path d="M325 5391 c-81 -27 -136 -60 -190 -115 -83 -86 -125 -189 -125 -309
0 -185 117 -346 300 -413 49 -17 217 -27 226 -13 3 5 13 9 22 9 38 0 145 62
195 112 229 230 144 610 -161 721 -75 27 -199 31 -267 8z"/>
<path d="M1662 5230 c-85 -19 -153 -109 -148 -198 8 -136 139 -224 264 -176
46 17 116 79 107 94 -3 5 -1 10 4 12 15 5 23 85 12 124 -19 67 -78 131 -131
141 -40 8 -78 9 -108 3z"/>
<path d="M6890 4928 c-63 -13 -61 -12 -102 -32 -42 -20 -123 -97 -143 -135 -7
-15 -20 -51 -28 -81 -40 -156 34 -312 183 -386 47 -23 68 -28 140 -28 71 -1
94 3 140 25 69 32 130 94 166 167 39 80 40 192 2 273 -28 61 -92 139 -114 139
-8 0 -14 4 -14 9 0 13 -96 48 -145 53 -22 2 -60 0 -85 -4z"/>
<path d="M8272 4524 c-113 -29 -187 -126 -187 -244 0 -165 139 -277 305 -245
35 6 130 61 130 74 0 4 9 17 19 28 36 39 60 165 38 201 -5 6 -6 12 -2 12 8 0
-32 72 -57 102 -28 32 -95 68 -140 74 -18 3 -37 6 -43 8 -5 2 -34 -3 -63 -10z"/>
<path d="M1876 4249 c-110 -30 -182 -165 -148 -276 41 -129 206 -191 319 -120
120 76 141 236 44 336 -55 56 -141 80 -215 60z"/>
<path d="M436 4188 c-60 -8 -159 -57 -206 -100 -92 -84 -140 -199 -136 -321 2
-40 6 -85 10 -101 21 -86 109 -203 191 -250 82 -48 210 -71 296 -52 117 26
200 82 266 182 55 82 73 149 69 248 -11 257 -230 433 -490 394z"/>
<path d="M6496 3858 c-9 -5 -20 -7 -25 -3 -5 3 -12 1 -16 -5 -3 -5 -16 -10
-29 -10 -43 0 -144 -94 -178 -167 -30 -66 -30 -188 0 -256 31 -68 86 -123 160
-158 58 -28 72 -31 141 -27 118 5 209 61 264 161 86 155 25 354 -134 435 -50
25 -160 43 -183 30z"/>
<path d="M2555 3371 c-56 -15 -82 -29 -114 -61 -51 -51 -70 -97 -72 -170 -4
-205 250 -313 400 -170 97 94 96 251 -3 342 -56 52 -144 77 -211 59z"/>
<path d="M8000 3283 c-138 -51 -206 -145 -203 -280 2 -142 130 -257 278 -252
243 8 350 302 170 468 -60 56 -181 87 -245 64z"/>
<path d="M5602 3095 c-108 -40 -189 -152 -193 -267 -1 -29 1 -64 5 -78 13 -45
39 -100 48 -100 4 0 8 -5 8 -12 0 -17 58 -65 109 -90 66 -33 189 -33 252 0 24
13 53 31 64 40 26 22 91 105 88 112 -2 3 1 19 7 35 15 48 6 154 -18 205 -24
50 -73 110 -91 110 -6 0 -11 4 -11 8 0 5 -17 17 -37 27 -52 25 -175 30 -231
10z"/>
<path d="M824 2945 c-133 -35 -235 -130 -283 -263 -18 -47 -21 -154 -8 -230
15 -84 111 -203 202 -250 81 -41 153 -52 260 -39 120 15 265 136 301 252 48
154 26 283 -68 397 -95 115 -262 170 -404 133z"/>
<path d="M3538 2864 c-3 -2 -15 -6 -29 -8 -13 -2 -25 -5 -26 -7 -2 -1 -6 -2
-10 -3 -22 -5 -71 -38 -94 -63 -67 -71 -89 -191 -51 -275 24 -55 90 -120 140
-140 62 -24 150 -20 207 9 61 30 86 55 116 113 21 41 43 160 29 160 -3 0 -6 9
-7 21 -3 32 -50 105 -89 137 -35 29 -84 47 -151 56 -17 2 -33 2 -35 0z"/>
<path d="M4560 2761 c-50 -18 -91 -53 -146 -122 -22 -29 -37 -110 -31 -169 7
-62 45 -137 89 -176 42 -36 118 -67 167 -67 111 -1 190 39 250 128 45 67 57
181 26 242 -8 16 -15 33 -15 39 0 18 -80 93 -122 115 -58 30 -151 34 -218 10z"/>
<path d="M7334 2175 c-79 -25 -119 -52 -167 -115 -31 -42 -56 -131 -52 -186
12 -179 191 -305 365 -258 14 4 30 8 37 10 6 1 26 13 44 25 117 84 159 219
110 351 -31 81 -115 155 -196 172 -62 13 -101 13 -141 1z"/>
<path d="M1665 1892 c-46 -8 -125 -35 -125 -43 0 -5 -7 -9 -15 -9 -14 0 -101
-81 -131 -121 -43 -57 -71 -208 -52 -279 14 -55 51 -140 60 -140 4 0 8 -5 8
-12 0 -21 84 -90 146 -119 215 -103 470 18 530 250 15 60 15 126 0 197 -9 43
-56 121 -98 165 -36 36 -122 91 -147 95 -3 0 -18 4 -32 8 -30 9 -115 14 -144
8z"/>
<path d="M6358 1392 c-85 -29 -147 -82 -190 -164 -32 -62 -32 -193 1 -260 30
-63 86 -119 147 -149 67 -33 198 -34 260 -2 158 83 220 254 149 410 -62 136
-229 212 -367 165z"/>
<path d="M2735 1170 c-156 -36 -274 -175 -281 -328 -5 -126 34 -225 121 -301
68 -59 138 -84 235 -84 99 1 100 1 164 33 71 36 130 96 167 170 28 58 32 74
32 150 1 112 -25 178 -97 254 -69 72 -145 107 -241 111 -38 1 -83 -1 -100 -5z"/>
<path d="M5173 939 c-70 -27 -142 -94 -177 -165 -24 -49 -29 -72 -30 -139 0
-70 3 -88 29 -138 105 -209 376 -252 530 -86 60 65 82 117 89 214 4 45 -20
148 -34 153 -6 2 -10 10 -10 18 0 13 -22 45 -45 65 -78 70 -130 92 -225 95
-55 2 -89 -3 -127 -17z"/>
<path d="M3959 869 c-8 -3 -35 -16 -62 -28 -153 -68 -233 -243 -185 -405 89
-305 505 -338 640 -51 85 183 -6 404 -194 471 -46 16 -175 25 -199 13z"/>
</g>
</svg>
